<svg width="100" height="100" viewBox="0 0 100 100" fill="none" xmlns="http://www.w3.org/2000/svg">
<g clip-path="url(#clip0_123_2)">
<rect width="100" height="100" fill="#6148FF"/>
<path d="M81 52.625C81 53.2549 81.2634 53.859 81.7322 54.3044C82.2011 54.7498 82.837 55 83.5 55C84.163 55 84.7989 54.7498 85.2678 54.3044C85.7366 53.859 86 53.2549 86 52.625H81ZM81 36V52.625H86V36H81Z" fill="white"/>
<path fill-rule="evenodd" clip-rule="evenodd" d="M27.7376 49.1294C27.5541 49.0358 27.3501 48.9917 27.1451 49.0013C26.94 49.0108 26.7409 49.0737 26.5665 49.184C26.3922 49.2943 26.2486 49.4482 26.1494 49.631C26.0502 49.8139 25.9988 50.0196 26 50.2284V65.3462C26 65.3462 26 80 50 80C74 80 74 65.3462 74 65.3462V50.2284C74.0004 50.02 73.9484 49.8149 73.8488 49.6327C73.7493 49.4505 73.6056 49.2973 73.4314 49.1876C73.2572 49.0779 73.0584 49.0154 72.8537 49.0061C72.6491 48.9968 72.4455 49.0409 72.2624 49.1343L52.1504 59.3675C51.4835 59.7071 50.7481 59.8839 50.0024 59.8839C49.2567 59.8839 48.5213 59.7071 47.8544 59.3675L27.7376 49.1294Z" fill="white"/>
<path d="M15.3505 33.2882L48.9078 16.2622C49.2468 16.0898 49.6208 16 50 16C50.3792 16 50.7532 16.0898 51.0922 16.2622L84.6495 33.2833C85.0552 33.4885 85.3965 33.8044 85.6351 34.1955C85.8736 34.5867 86 35.0375 86 35.4975C86 35.9575 85.8736 36.4084 85.6351 36.7995C85.3965 37.1907 85.0552 37.5066 84.6495 37.7118L51.0922 54.7378C50.7532 54.9102 50.3792 55 50 55C49.6208 55 49.2468 54.9102 48.9078 54.7378L15.3505 37.7167C14.9448 37.5115 14.6035 37.1956 14.3649 36.8045C14.1264 36.4134 14 35.9625 14 35.5025C14 35.0425 14.1264 34.5916 14.3649 34.2005C14.6035 33.8093 14.9448 33.4934 15.3505 33.2882Z" fill="white"/>
</g>
<defs>
<clipPath id="clip0_123_2">
<rect width="100" height="100" fill="white"/>
</clipPath>
</defs>
</svg>
