<svg width="60" height="60" viewBox="0 0 60 60" fill="none" xmlns="http://www.w3.org/2000/svg">
<rect width="60" height="60" rx="25" fill="white"/>
<path opacity="0.2" d="M25 34C28.5899 34 31.5 31.0899 31.5 27.5C31.5 23.9101 28.5899 21 25 21C21.4101 21 18.5 23.9101 18.5 27.5C18.5 31.0899 21.4101 34 25 34Z" fill="#6148FF"/>
<path d="M25 34C28.5899 34 31.5 31.0899 31.5 27.5C31.5 23.9101 28.5899 21 25 21C21.4101 21 18.5 23.9101 18.5 27.5C18.5 31.0899 21.4101 34 25 34Z" stroke="#6148FF" stroke-width="2" stroke-miterlimit="10"/>
<path d="M33.4265 21.2421C34.3205 20.9903 35.2582 20.9329 36.1762 21.0739C37.0943 21.2149 37.9715 21.5509 38.7487 22.0595C39.526 22.5681 40.1852 23.2373 40.6821 24.022C41.1789 24.8068 41.5018 25.689 41.629 26.6091C41.7562 27.5291 41.6847 28.4658 41.4194 29.3559C41.1541 30.2461 40.7012 31.069 40.0911 31.7694C39.481 32.4697 38.7278 33.0312 37.8825 33.416C37.0371 33.8008 36.119 33.9999 35.1902 34" stroke="#6148FF" stroke-width="2" stroke-linecap="round" stroke-linejoin="round"/>
<path d="M15.9994 38.6746C17.0146 37.2306 18.3623 36.052 19.9287 35.2384C21.4951 34.4248 23.2344 34.0001 24.9995 34C26.7646 33.9999 28.5039 34.4246 30.0704 35.238C31.6369 36.0515 32.9847 37.23 34 38.6739" stroke="#6148FF" stroke-width="2" stroke-linecap="round" stroke-linejoin="round"/>
<path d="M35.1902 34C36.9555 33.9987 38.6951 34.4228 40.2617 35.2364C41.8284 36.05 43.1759 37.2291 44.1902 38.6739" stroke="#6148FF" stroke-width="2" stroke-linecap="round" stroke-linejoin="round"/>
</svg>
